<?xml version="1.0" standalone="no"?>
<!DOCTYPE svg PUBLIC "-//W3C//DTD SVG 20010904//EN"
 "http://www.w3.org/TR/2001/REC-SVG-20010904/DTD/svg10.dtd">
<svg version="1.0" xmlns="http://www.w3.org/2000/svg"
 width="454.000000pt" height="454.000000pt" viewBox="0 0 454.000000 454.000000"
 preserveAspectRatio="xMidYMid meet">
<metadata>
Created by potrace 1.11, written by Peter Selinger 2001-2013
</metadata>
<g transform="translate(0.000000,454.000000) scale(0.100000,-0.100000)"
fill="#000000" stroke="none">
<path d="M2009 4525 c-101 -14 -148 -21 -189 -30 -14 -3 -38 -8 -55 -11 -115
-21 -386 -119 -515 -187 -186 -98 -332 -195 -463 -310 -124 -110 -177 -165
-317 -334 -10 -11 -45 -61 -77 -110 -167 -250 -276 -501 -338 -783 -25 -112
-22 -95 -45 -275 -8 -63 -5 -415 4 -475 3 -19 8 -51 10 -71 20 -151 99 -429
161 -565 100 -221 231 -433 355 -572 100 -113 212 -223 293 -287 21 -16 48
-38 60 -49 58 -48 253 -170 352 -219 220 -111 423 -177 680 -222 75 -13 193
-20 350 -20 152 1 330 11 345 20 3 2 23 6 45 9 262 42 598 175 840 333 436
286 751 695 918 1193 55 165 83 294 104 480 10 84 9 386 0 471 -8 68 -9 73
-27 179 -18 100 -74 306 -100 365 -5 11 -21 49 -36 85 -88 216 -230 446 -385
622 -68 78 -184 193 -239 237 -25 20 -54 44 -65 55 -49 45 -293 198 -398 249
-224 110 -433 176 -672 212 -142 22 -467 27 -596 10z"/>
</g>
</svg>
